<svg width="50" height="50" version="1.1" viewBox="0 0 50 50" xml:space="preserve" xmlns="http://www.w3.org/2000/svg"><g transform="translate(-39)" stroke="#000" stroke-linejoin="round"><g transform="translate(7)" fill="#fff" stroke-linecap="round" stroke-miterlimit="2" stroke-width="3"><path d="m55.5 19.5h16v16h-16z"/><path d="m42.5 27.5h13v13h-13z"/><path d="m55.5 35.5h7v13h-7z"/></g><g transform="translate(3.5)" fill="#fff" stroke-linecap="round" stroke-miterlimit="2" stroke-width="2"><path d="m42.5 2h36v12h-36z"/><path d="m54.5 2v12" fill="#fff"/><path d="m66.5 2v12" fill="#fff"/></g><g transform="translate(4.0417 1)" display="none" stroke-miterlimit="1" stroke-width="2"><g><path d="m42.958 5v8h4l1-1v-2l-1-1 1-1v-2l-1-1z" display="inline" fill-opacity="0" style="paint-order:normal"/><path d="m42.958 9h5" fill="#fff" style="paint-order:stroke fill markers"/><path d="m56.958 5v8h4l1-1v-2l-1-1 1-1v-2l-1-1z" fill-opacity="0" style="paint-order:normal"/><path d="m55.958 9h5" fill="#fff" style="paint-order:stroke fill markers"/></g><path d="m76.958 6-1-1h-3l-1 1v6l1 1h3l1-1" fill="none" stroke-linecap="round" style="paint-order:normal"/></g><g stroke-miterlimit="1" stroke-width="2"><path d="m62 5v6h3l1-1v-1l-1-1 1-1v-1l-1-1z" fill-opacity="0" style="paint-order:normal"/><path d="m62.5 8h3" fill="#fff" style="paint-order:stroke fill markers"/><path d="m78 6-1-1h-2l-1 1v4l1 1h2l1-1" fill="none" stroke-linecap="round" style="paint-order:normal"/><path d="m50 5v6h3l1-1v-1l-1-1 1-1v-1l-1-1z" fill-opacity="0" style="paint-order:normal"/><path d="m50 8h3" fill="#fff" style="paint-order:stroke fill markers"/></g></g></svg>
