<svg width="25" height="25" version="1.1" viewBox="0 0 25 25" xml:space="preserve" xmlns="http://www.w3.org/2000/svg"><g display="none" stroke="#000" stroke-linejoin="round" stroke-width="2"><g stroke-miterlimit="1"><g><path d="m1 1v8h4l1-1v-2l-1-1 1-1v-2l-1-1z" display="inline" fill-opacity="0" style="paint-order:normal"/><path d="m1 5h5" fill="#fff" style="paint-order:stroke fill markers"/><path d="m10 1v8h4l1-1v-2l-1-1 1-1v-2l-1-1z" fill-opacity="0" style="paint-order:normal"/><path d="m10 5h5" fill="#fff" style="paint-order:stroke fill markers"/></g><path d="m20 1h3l1 1-1-1h-3l-1 1v6l1 1h3l1-1" fill="none" stroke-linecap="round" style="paint-order:normal"/></g><g fill="#fff" stroke-linecap="round" stroke-miterlimit="2"><path d="m12 12h5v5h-5z"/><path d="m5 16h4v4h-4z"/><path d="m12 20h3v4h-3z"/></g><g stroke-miterlimit="1"><path d="m11 1v6h3l1-1v-1l-1-1 1-1v-1l-1-1z" fill-opacity="0" style="paint-order:normal"/><path d="m11 4h3" fill="#fff" style="paint-order:stroke fill markers"/><path d="m23 2-1-1h-2l-1 1v4l1 1h2l1-1" fill="none" stroke-linecap="round" style="paint-order:normal"/></g><g fill="#fff" stroke-linecap="round" stroke-miterlimit="2"><path d="m12 11h7v7h-7z"/><path d="m6 14h6v6h-6z"/><path d="m12 18h4v6h-4z"/></g><path d="m3 1v6h3l1-1v-1l-1-1 1-1v-1l-1-1z" fill-opacity="0" stroke-miterlimit="1" style="paint-order:normal"/><path d="m3 4h3" fill="#fff" stroke-miterlimit="1" style="paint-order:stroke fill markers"/></g><g stroke="#000"><path d="m0.5 0.5h24v24h-24z" fill="#fff" stroke-linecap="square" stroke-miterlimit="34"/><g stroke-linejoin="round" stroke-miterlimit="1" stroke-width="2"><path d="m11 3v6h3l1-1v-1l-1-1 1-1v-1l-1-1z" fill-opacity="0" style="paint-order:normal"/><path d="m11 6h3" fill="#fff" style="paint-order:stroke fill markers"/><path d="m22 4-1-1h-2l-1 1v4l1 1h2l1-1" fill="none" stroke-linecap="round" style="paint-order:normal"/></g><g fill="#fff" stroke-linecap="round" stroke-linejoin="round" stroke-miterlimit="2" stroke-width="2"><path d="m12 12h6v6h-6z"/><path d="m7 15h5v5h-5z"/><path d="m12 18h4v4h-4z"/></g><path d="m4 3v6h3l1-1v-1l-1-1 1-1v-1l-1-1z" fill-opacity="0" stroke-linejoin="round" stroke-miterlimit="1" stroke-width="2" style="paint-order:normal"/><path d="m4 6h3" fill="#fff" stroke-linejoin="round" stroke-miterlimit="1" stroke-width="2" style="paint-order:stroke fill markers"/></g></svg>
