<svg width="80" height="80" version="1.1" viewBox="0 0 80 80" xml:space="preserve" xmlns="http://www.w3.org/2000/svg"><g><path d="m24 2-22 22v32l22 22h7v-12l-3 1h-3l-4-2-4-8-1-1h1l4 2 3 3 3 1 4-2 3-3v-3l-6-2-6-3-4-8v-4l1-3 3-7-1-3v-3l1-3h3l3 1 3 3 6-2h6l6 2 3-3 3-1h3l1 3v4l-1 3 3 6 1 3v4l-4 8-6 3-6 2v3l3 3v18h7l22-22v-32l-22-22z" fill="#fff" fill-opacity=".9973" stroke="#000" stroke-linecap="round" stroke-linejoin="round" stroke-miterlimit="1" stroke-width="4" style="paint-order:markers fill stroke"/></g></svg>
