<svg width="25" height="25" version="1.1" viewBox="0 0 25 25" xml:space="preserve" xmlns="http://www.w3.org/2000/svg"><defs><clipPath id="clip0_730_27126-6"><rect width="98" height="96" fill="#fff"/></clipPath></defs><path d="m7 1h11l6 6v12l-6 5-11-0.036867-6-5.9631v-11z" fill="#fff" stroke="#000" stroke-linecap="round" stroke-miterlimit="34" stroke-width="2"/><path d="m9 24v-6l-2 1-1-1-1-2h-1 1l1 2 1 1 2-1 1-3-2-1-2-2 1-3v-3l3 1 2-1h1l2 1 3-1v3l1 3-2 2-2 1 1 3v6z" fill="#fff" fill-opacity=".9973" stroke="#000" stroke-linejoin="round" stroke-miterlimit="1" stroke-width="2" style="paint-order:markers fill stroke"/><g transform="translate(-19,-36)" clip-path="url(#clip0_730_27126-6)"><path d="m29.068 51.672c-4.0656-0.49281-6.93-3.4188-6.93-7.2072 0-1.54 0.55441-3.2032 1.4784-4.312-0.40038-1.0164-0.33879-3.1724 0.12319-4.0656 1.232-0.15399 2.8952 0.49278 3.8808 1.386 1.1704-0.36958 2.4024-0.55438 3.9116-0.55438s2.7412 0.18479 3.85 0.52358c0.95479-0.8624 2.6488-1.5092 3.8808-1.3552 0.43118 0.8316 0.49278 2.9876 0.0924 4.0348 0.98559 1.1704 1.5092 2.7412 1.5092 4.3427 0 3.7884-2.8643 6.6527-6.9915 7.1764 1.0472 0.67757 1.7556 2.156 1.7556 3.85v3.2032c0 0.92399 0.77 1.4476 1.694 1.078 5.5748-2.1252 9.9483-7.6999 9.9483-14.599 3e-6 -8.7163-7.0839-15.831-15.8-15.831-8.7163 0-15.739 7.1147-15.739 15.831 0 6.8375 4.3427 12.505 10.195 14.63 0.8316 0.30799 1.6324-0.24639 1.6324-1.078v-2.464c-0.43118 0.18482-0.98559 0.30802-1.4784 0.30802-2.0328 0-3.234-1.1088-4.0964-3.1724-0.33879-0.83156-0.70837-1.3244-1.4168-1.4168-0.36958-0.03079-0.49281-0.18479-0.49281-0.36958 0-0.36962 0.61601-0.6468 1.232-0.6468 0.8932 0 1.6632 0.55441 2.464 1.694 0.61601 0.8932 1.2628 1.2936 2.0328 1.2936s1.2628-0.27719 1.9712-0.98559c0.52361-0.52361 0.92399-0.98559 1.2936-1.2936z" display="none" opacity=".567" stroke-width=".32183"/></g></svg>
