<svg width="80" height="80" version="1.1" viewBox="0 0 80 80" xml:space="preserve" xmlns="http://www.w3.org/2000/svg"><g fill="#fff" stroke="#000" stroke-linecap="round" stroke-miterlimit="34" stroke-width="4"><path d="m52 60h6l3 3v6l-3 3h-6l-3-3v-6z"/><path d="m27 51 5-15 13-13h18l13 13-5 15-13 13h-27l-14-13z" stroke-linejoin="round"/><path d="m30 60h6l3 3v6l-3 3h-6l-3-3v-6z"/></g><path d="m48.5 48 1.5 3h7l6-3" fill="none" stroke="#000" stroke-linecap="round" stroke-linejoin="round" stroke-miterlimit="34" stroke-width="4"/><g fill="#fff" stroke="#000" stroke-linecap="round" stroke-linejoin="round" stroke-miterlimit="34"><path d="m50.5 39.5 1-3" stroke-width="5"/><path d="m62.5 39.5 1-3" stroke-width="5"/><g stroke-width="3"><path d="m30.5 26.5h-19"/><path d="m24.5 34.5h-10"/><path d="m9 34.5h-1.5"/><path d="m21.5 42.5h-17"/></g></g></svg>
